<svg height="512pt" viewBox="0 0 512 512" width="512pt" xmlns="http://www.w3.org/2000/svg" xmlns:xlink="http://www.w3.org/1999/xlink"><linearGradient id="a"><stop offset="0" stop-color="#e93e3a"/><stop offset=".354" stop-color="#ed683c"/><stop offset=".705" stop-color="#f3903f"/><stop offset="1" stop-color="#fdc70c"/></linearGradient><linearGradient id="b" gradientTransform="matrix(.670906 0 0 -.670906 0 495.66887)" gradientUnits="userSpaceOnUse" x1="-5.1989" x2="919.1863" xlink:href="#a" y1="357.2318" y2="357.2318"/><linearGradient id="c" gradientTransform="matrix(.670906 0 0 -.670906 0 495.66887)" gradientUnits="userSpaceOnUse" x1="-5.1989" x2="919.1863" xlink:href="#a" y1="357.3784" y2="357.3784"/><path d="m256 512c-141.386719 0-256-114.617188-256-256 0-141.386719 114.613281-256 256-256 141.382812 0 256 114.613281 256 256-.167969 141.316406-114.683594 255.832031-256 256zm0-480c-123.710938 0-224 100.289062-224 224s100.289062 224 224 224 224-100.289062 224-224c-.132812-123.65625-100.34375-223.867188-224-224zm0 0" fill="url(#b)"/><path d="m302.398438 430.398438c-4.242188 0-8.3125-1.6875-11.3125-4.6875l-158.398438-158.398438c-6.246094-6.25-6.246094-16.375 0-22.625l158.398438-158.398438c6.140624-6.359374 16.269531-6.535156 22.625-.394531 6.355468 6.136719 6.53125 16.269531.394531 22.625-.128907.132813-.261719.261719-.394531.390625l-147.085938 147.089844 147.070312 147.070312c6.257813 6.242188 6.269532 16.371094.027344 22.628907-3 3.007812-7.074218 4.699219-11.324218 4.699219zm0 0" fill="url(#c)"/></svg>