<svg height="462pt" viewBox="-52 0 462 462.82" width="462pt" xmlns="http://www.w3.org/2000/svg"><path d="m.410156 152.707031v40.4375c0 4.417969 3.582032 8 8 8h11.296875l16.320313 127.800781 5.507812 43.132813 10.695313 83.753906c.507812 3.992188 3.90625 6.984375 7.929687 6.988281h238.589844c4.027344 0 7.425781-2.992187 7.9375-6.988281l4.472656-35.0625v-.027343l10.542969-82.5v-.019532l6.335937-49.636718 11.167969-87.441407h11.296875c4.417969 0 8-3.582031 8-8v-40.4375c0-4.417969-3.582031-8-8-8h-6.765625c5.160157-15.707031 1.128907-32.984375-10.457031-44.78125-11.582031-11.800781-28.777344-16.15625-44.578125-11.289062-6.871094-9.152344-17.640625-14.550781-29.085937-14.578125-4.996094-.011719-9.945313 1.015625-14.523438 3.019531-12.847656-18.285156-37.328125-24.097656-57.023438-13.53125-9.3125-15.164063-26.800781-23.277344-44.394531-20.589844s-31.863281 15.65625-36.21875 32.910157c-1.90625-.261719-3.832031-.394532-5.757812-.398438-18.425781-.015625-34.929688 11.394531-41.417969 28.640625-12.058594-3.953125-25.308594-1.28125-34.894531 7.03125-9.589844 8.316406-14.109375 21.054687-11.90625 33.550781h-5.070313c-2.125 0-4.160156.84375-5.664062 2.347656-1.5 1.503907-2.339844 3.542969-2.335938 5.667969zm166 48.433594 138.929688 138.949219-7.980469 62.472656-53.367187-53.339844c10.125-25.640625 4.0625-54.84375-15.433594-74.335937-19.492188-19.496094-48.695313-25.558594-74.335938-15.4375l-58.308594-58.304688zm141.488282 118.882813-118.878907-118.878907h33.351563l89.304687 89.308594zm-82.601563 31.132812-.246094.398438c-4.488281 7.375-10.679687 13.5625-18.058593 18.042968l-.324219.199219c-1.171875.699219-2.371094 1.351563-3.601563 1.960937-20.496094 10.203126-45.222656 6.15625-61.402344-10.042968-16.179687-16.199219-20.1875-40.929688-9.957031-61.414063.589844-1.183593 1.222657-2.34375 1.898438-3.480469l.269531-.441406c4.472656-7.351562 10.648438-13.523437 18-18l.398438-.242187c1.152343-.6875 2.328124-1.328125 3.53125-1.925781 20.496093-10.21875 45.226562-6.1875 61.414062 10.007812 16.191406 16.195312 20.210938 40.925781 9.988281 61.417969-.589843 1.203125-1.226562 2.375-1.910156 3.519531zm-32.773437 95.671875-143.65625-143.65625-10.316407-80.800781 76.371094 76.375c-10.121094 25.644531-4.058594 54.847656 15.433594 74.339844 19.492187 19.496093 48.695312 25.558593 74.339843 15.4375l58.308594 58.304687zm-53-179.464844-.15625.121094c-6.328126 4.503906-11.859376 10.03125-16.371094 16.355469-.046875.066406-.101563.128906-.148438.195312l-82.90625-82.890625h33.347656zm-79.152344 125.914063 53.550781 53.550781h-46.710937zm76.175781 53.550781-79.488281-79.488281-4.878906-38.230469 117.722656 117.71875zm149.078125 0-66.226562-66.226563c.089843-.066406.175781-.140624.261718-.207031 6.304688-4.5 11.8125-10.019531 16.300782-16.332031.035156-.046875.078124-.089844.109374-.136719l58.722657 58.71875-3.082031 24.179688zm28.613281-176.441406-69.246093-69.242188h78.085937zm28.269531-85.242188h-326.097656v-24.4375h326.09375zm-313.539062-46.335937c-.015625-7.617188 4.222656-14.605469 10.988281-18.109375 6.761719-3.507813 14.914063-2.941407 21.128907 1.464843 2.304687 1.632813 5.300781 1.929688 7.882812.78125 2.578125-1.148437 4.363281-3.574218 4.6875-6.382812.949219-8.613281 5.816406-16.3125 13.195312-20.867188 7.375-4.554687 16.4375-5.453124 24.566407-2.4375 2.417969.882813 5.113281.550782 7.242187-.894531 2.132813-1.445312 3.4375-3.828125 3.507813-6.402343.363281-13.652344 10.453125-25.082032 23.957031-27.132813 13.5-2.050781 26.53125 5.863281 30.933594 18.792969 1.402344 6.527344.042968 13.347656-3.753906 18.839844-1.910157 2.183593-2.488282 5.230468-1.511719 7.960937.976562 2.730469 3.355469 4.71875 6.21875 5.199219 2.859375.476562 5.757812-.632813 7.566406-2.902344 5.9375-7.953125 8.722656-17.824219 7.816406-27.707031 6.945313-4.621094 15.582031-5.921875 23.578125-3.550781 7.996094 2.371093 14.527344 8.171874 17.828125 15.832031.988281 2.269531 2.972657 3.953125 5.375 4.5625 2.398438.605469 4.945313.066406 6.894531-1.460938 3.566407-2.816406 7.980469-4.34375 12.527344-4.335937 7.875.027344 15.035156 4.578125 18.398438 11.699218 1.015625 3.914063 1.316406 7.976563.882812 12-.46875 4.386719 2.707032 8.324219 7.09375 8.796876.289063.035156.578125.050781.871094.050781 4.078125-.007813 7.5-3.085938 7.9375-7.144531.367188-3.953126.328125-7.929688-.113281-11.871094 2.285156-.605469 4.644531-.914063 7.011719-.917969 15.59375.019531 28.230468 12.65625 28.25 28.253906.007812 4.828125-1.238282 9.574219-3.621094 13.773438h-296.449219c-.585937-1.910157-.882813-3.894531-.890625-5.890625zm0 0"/><path d="m334.429688 40.308594c0-16.660156-13.503907-30.164063-30.160157-30.164063-16.660156-.003906-30.164062 13.5-30.167969 30.15625-.003906 16.660157 13.5 30.167969 30.15625 30.171875 16.65625-.015625 30.15625-13.507812 30.171876-30.164062zm-44.328126 0c0-7.824219 6.34375-14.167969 14.167969-14.164063 7.824219 0 14.164063 6.34375 14.160157 14.167969-.003907 7.824219-6.347657 14.164062-14.171876 14.160156-7.816406-.015625-14.148437-6.347656-14.15625-14.164062zm0 0"/><path d="m259.574219 24.164062c0-13.34375-10.820313-24.164062-24.164063-24.164062s-24.164062 10.820312-24.164062 24.164062 10.820312 24.164063 24.164062 24.164063c13.339844-.015625 24.148438-10.824219 24.164063-24.164063zm-32.328125 0c0-4.507812 3.65625-8.164062 8.164062-8.164062 4.507813 0 8.164063 3.65625 8.164063 8.164062 0 4.507813-3.65625 8.164063-8.164063 8.164063-4.507812-.007813-8.15625-3.65625-8.164062-8.164063zm0 0"/><path d="m122.621094 122.1875c-5.886719-.769531-10.574219-5.308594-11.53125-11.167969-.867188-4.332031-5.085938-7.144531-9.417969-6.277343-4.335937.871093-7.144531 5.085937-6.277344 9.421874 2.242188 12.476563 12.246094 22.097657 24.800781 23.855469 2.851563.488281 5.746094-.601562 7.566407-2.851562 1.824219-2.25 2.289062-5.308594 1.214843-7.996094-1.070312-2.6875-3.511718-4.589844-6.382812-4.96875zm0 0"/></svg>