<svg height="462pt" viewBox="-52 0 462 462.844" width="462pt" xmlns="http://www.w3.org/2000/svg" xmlns:xlink="http://www.w3.org/1999/xlink"><linearGradient id="linear0" gradientUnits="userSpaceOnUse" x1="43.534" x2="357.614" y1="93.232" y2="407.312"><stop offset="0" stop-color="#ffca6c"/><stop offset="1" stop-color="#ff654f"/></linearGradient><path d="m350.519531 144.726562h-6.769531c5.160156-15.707031 1.128906-32.984374-10.457031-44.785156-11.582031-11.800781-28.78125-16.152344-44.582031-11.285156-6.871094-9.152344-17.636719-14.546875-29.082032-14.578125-4.996094-.011719-9.945312 1.019531-14.523437 3.023437-12.847657-18.289062-37.328125-24.101562-57.023438-13.535156-8.03125-13.117187-22.316406-21.101562-37.699219-21.074218-4.417968 0-8 3.582031-8 8 0 4.417968 3.582032 8 8 8 12.082032-.007813 22.824219 7.699218 26.6875 19.148437 1.402344 6.527344.046876 13.347656-3.753906 18.839844-1.910156 2.183593-2.488281 5.230469-1.511718 7.960937.976562 2.730469 3.355468 4.722656 6.21875 5.199219 2.859374.476563 5.757812-.632813 7.566406-2.902344 5.9375-7.953125 8.722656-17.820312 7.816406-27.707031 6.945312-4.621094 15.582031-5.921875 23.578125-3.550781 7.996094 2.371093 14.527344 8.171875 17.828125 15.832031.988281 2.269531 2.972656 3.953125 5.375 4.5625 2.398438.605469 4.945312.066406 6.894531-1.460938 3.566407-2.816406 7.980469-4.34375 12.527344-4.335937 7.875.027344 15.035156 4.578125 18.402344 11.699219 1.011719 3.914062 1.308593 7.980468.875 12-.46875 4.386718 2.710937 8.328125 7.097656 8.796875.289063.035156.578125.050781.871094.050781 4.082031-.007812 7.5-3.085938 7.9375-7.144531.367187-3.953125.328125-7.929688-.113281-11.871094 2.285156-.605469 4.640624-.910156 7.007812-.917969 15.59375.019532 28.230469 12.65625 28.25 28.253906.007812 4.828126-1.238281 9.574219-3.621094 13.773438h-296.445312c-2.535156-8.320312.503906-17.335938 7.558594-22.425781 7.054687-5.089844 16.566406-5.136719 23.667968-.109375 2.304688 1.632812 5.300782 1.929687 7.882813.78125 2.578125-1.148438 4.363281-3.574219 4.691406-6.378906.945313-8.617188 5.8125-16.316407 13.191406-20.871094 7.375-4.554688 16.4375-5.453125 24.566407-2.4375 2.417968.882812 5.113281.550781 7.242187-.894532 2.128906-1.445312 3.433594-3.824218 3.507813-6.398437.089843-4.085937 1.078124-8.097656 2.890624-11.761719 1.960938-3.960937.335938-8.757812-3.625-10.71875-3.960937-1.960937-8.761718-.335937-10.71875 3.625-1.386718 2.796875-2.472656 5.734375-3.238281 8.761719-1.914062-.261719-3.84375-.394531-5.773437-.398437-18.425782-.015626-34.925782 11.394531-41.417969 28.640624-12.058594-3.953124-25.308594-1.28125-34.898437 7.035157-9.585938 8.316406-14.105469 21.054687-11.902344 33.550781h-5.074219c-4.417969 0-8 3.582031-8 8v40.445312c0 4.417969 3.582031 8 8 8h11.300781l5.027344 39.382813c.558594 4.382813 4.566406 7.484375 8.949219 6.921875 4.382812-.558594 7.484375-4.566406 6.921875-8.949219l-2.058594-16.125 76.371094 76.375c-10.121094 25.640625-4.058594 54.84375 15.433594 74.335938 19.492187 19.496093 48.695312 25.558593 74.339843 15.4375l58.308594 58.304687h-70.476563l-143.660156-143.65625-3.503906-27.429687c-.5625-4.386719-4.570312-7.484375-8.953125-6.925781-4.382813.558593-7.484375 4.566406-6.925781 8.953124l8.839844 69.199219 3.199218 25.113281 10.695313 83.753907c.507812 3.992187 3.90625 6.988281 7.929687 6.988281h238.601563c4.027343 0 7.425781-2.992188 7.9375-6.988281l4.476562-35.0625v-.023438l10.539063-82.503906v-.023437l6.335937-49.636719 11.167969-87.441407h11.296875c4.417969 0 8-3.582031 8-8v-40.4375c0-4.414062-3.582031-7.996093-7.996094-8zm-227.660156 139.335938-82.90625-82.898438h33.347656l66.234375 66.21875-.15625.121094c-6.328125 4.503906-11.859375 10.03125-16.367187 16.355469-.050781.078125-.105469.136719-.152344.203125zm3.25 39.941406c.003906-8.21875 1.921875-16.324218 5.601563-23.675781.589843-1.183594 1.222656-2.34375 1.898437-3.480469l.269531-.441406c4.472656-7.351562 10.648438-13.523438 18-18l.398438-.242188c1.152344-.683593 2.328125-1.328124 3.53125-1.925781 12.0625-6.019531 25.964844-7.230469 38.886718-3.386719 4.234376 1.261719 8.6875-1.152343 9.949219-5.386718s-1.152343-8.6875-5.386719-9.949219c-14.808593-4.410156-30.667968-3.722656-45.039062 1.953125l-58.292969-58.304688h70.476563l138.949218 138.945313-7.980468 62.476563-53.363282-53.34375c10.050782-25.476563 4.105469-54.484376-15.164062-73.949219-3.105469-3.148438-8.171875-3.179688-11.316406-.078125-3.148438 3.105468-3.179688 8.171875-.078125 11.316406 16.023437 16.179688 19.957031 40.769531 9.777343 61.140625-.59375 1.195313-1.234374 2.367187-1.917968 3.511719l-.246094.402344c-4.488281 7.371093-10.679688 13.558593-18.054688 18.039062l-.328124.199219c-1.171876.699219-2.371094 1.351562-3.601563 1.960937-16.523437 8.222656-36.125 7.304688-51.804687-2.425781-15.683594-9.734375-25.203126-26.894531-25.164063-45.351563zm181.800781-3.964844-118.878906-118.875h33.351562l89.304688 89.308594zm-247.527344 73.257813 53.550782 53.550781h-46.714844zm76.175782 53.550781-79.488282-79.488281-.925781-7.226563-3.953125-31.003906 117.71875 117.71875zm149.078125 0-66.226563-66.226562c.09375-.066406.171875-.140625.265625-.207032 6.300781-4.5 11.808594-10.019531 16.296875-16.328124.039063-.050782.078125-.09375.109375-.140626l58.722657 58.71875-3.085938 24.179688zm28.613281-176.441406-69.242188-69.242188h78.082032zm28.269531-85.246094h-326.097656v-24.433594h326.09375zm-38.25-114.667968c16.660157 0 30.164063-13.503907 30.164063-30.164063s-13.503906-30.164063-30.164063-30.164063c-16.660156 0-30.164062 13.503907-30.164062 30.164063.019531 16.652344 13.511719 30.144531 30.164062 30.164063zm0-44.308594c7.824219 0 14.164063 6.34375 14.164063 14.164062 0 7.824219-6.34375 14.164063-14.167969 14.164063-7.820313 0-14.160156-6.34375-14.160156-14.167969.011719-7.816406 6.347656-14.152344 14.164062-14.160156zm-68.847656 22.144531c13.347656 0 24.167969-10.824219 24.164063-24.171875-.003907-13.347656-10.828126-24.1640625-24.175782-24.15625s-24.164062 10.835938-24.152344 24.183594c.027344 13.332031 10.832032 24.128906 24.164063 24.144531zm0-32.328125c4.507813 0 8.160156 3.652344 8.164063 8.15625.003906 4.507812-3.644532 8.164062-8.152344 8.171875-4.503906.007813-8.164063-3.636719-8.175782-8.144531-.003906-4.511719 3.648438-8.175782 8.164063-8.183594zm-112.800781 106.207031c4.144531.621094 7.109375 4.335938 6.796875 8.515625-.316407 4.179688-3.804688 7.40625-7.996094 7.398438-.402344 0-.800781-.03125-1.199219-.09375-12.554687-1.75-22.566406-11.367188-24.816406-23.84375-.863281-4.332032 1.953125-8.546875 6.285156-9.410156 4.335938-.863282 8.546875 1.953124 9.410156 6.285156.964844 5.851562 5.652344 10.382812 11.53125 11.148437zm0 0" fill="url(#linear0)"/></svg>