<svg height="446pt" viewBox="-52 0 446 446.848" width="446pt" xmlns="http://www.w3.org/2000/svg"><path d="m.425781 144.726562h342.09375v40.4375h-342.09375zm0 0" fill="#ff8b5a"/><path d="m312.121094 144.726562h30.398437v40.4375h-30.398437zm0 0" fill="#f2754e"/><path d="m322.640625 144.726562c4.75-6.265624 7.320313-13.910156 7.320313-21.773437.019531-12.59375-6.507813-24.289063-17.230469-30.886719-10.726563-6.601562-24.109375-7.152344-35.339844-1.457031-3.609375-7.882813-10.628906-13.675781-19.054687-15.722656-8.425782-2.046875-17.320313-.117188-24.144532 5.230469-5.753906-13.234376-18.804687-21.792969-33.234375-21.796876-8.886719-.003906-17.464843 3.269532-24.085937 9.199219-5.421875-16.808593-22.179688-27.257812-39.660156-24.730469-17.480469 2.527344-30.589844 17.296876-31.027344 34.953126-10.433594-3.855469-22.0625-2.695313-31.527344 3.152343-9.464844 5.84375-15.710938 15.71875-16.9375 26.777344-4.78125-3.390625-10.496094-5.207031-16.359375-5.199219-15.671875 0-28.375 12.703125-28.375 28.375-.003906 4.871094 1.253906 9.660156 3.652344 13.898438zm0 0" fill="#ffe07e"/><path d="m329.960938 122.953125c.019531-12.59375-6.507813-24.289063-17.230469-30.886719-10.726563-6.601562-24.109375-7.152344-35.339844-1.457031-3.609375-7.882813-10.628906-13.675781-19.054687-15.722656-8.425782-2.046875-17.320313-.117188-24.144532 5.230469 0 0 34.402344 5.476562 28.746094 38 0 0 35.324219-.855469 35.324219 26.625h24.398437c4.746094-6.269532 7.308594-13.925782 7.300782-21.789063zm0 0" fill="#f4c76c"/><path d="m318.445312 32.328125c0 12.242187-9.925781 22.164063-22.164062 22.164063-12.242188 0-22.164062-9.921876-22.164062-22.164063s9.921874-22.164063 22.164062-22.164063c12.238281 0 22.164062 9.921876 22.164062 22.164063zm0 0" fill="#ffe07e"/><path d="m296.273438 10.183594c-2 .007812-3.992188.285156-5.917969.824218 9.597656 2.652344 16.242187 11.382813 16.242187 21.339844 0 9.957032-6.644531 18.6875-16.242187 21.339844 8.320312 2.3125 17.226562-.421875 22.816406-7.007812 5.589844-6.582032 6.847656-15.8125 3.21875-23.648438-3.628906-7.839844-11.480469-12.851562-20.117187-12.847656zm0 0" fill="#f4c76c"/><path d="m243.589844 16.164062c0 8.925782-7.238282 16.164063-16.164063 16.164063-8.929687 0-16.164062-7.238281-16.164062-16.164063 0-8.925781 7.234375-16.164062 16.164062-16.164062 8.925781 0 16.164063 7.238281 16.164063 16.164062zm0 0" fill="#ffe07e"/><path d="m290.765625 446.847656h-238.585937l-33.414063-261.683594h305.414063zm0 0" fill="#eae3d3"/><g fill="#ff8b5a"><path d="m41.484375 363.085938 83.761719 83.761718h55.980468l-147.933593-147.9375zm0 0"/><path d="m68.617188 185.164062h-49.851563l.894531 7.019532 254.667969 254.664062h16.4375l4.472656-35.0625zm0 0"/><path d="m217.695312 185.164062h-55.980468l144.070312 144.0625 6.335938-49.636718zm0 0"/></g><path d="m300.015625 185.164062-33.410156 261.683594h24.160156l33.414063-261.683594zm0 0" fill="#e0d4ba"/><path d="m232.832031 316.003906c0 33.886719-27.472656 61.359375-61.359375 61.359375-33.890625 0-61.359375-27.472656-61.359375-61.359375 0-33.886718 27.46875-61.359375 61.359375-61.359375 33.886719 0 61.359375 27.472657 61.359375 61.359375zm0 0" fill="#ff8b5a"/><path d="m171.472656 254.648438c-3.171875.023437-6.339844.289062-9.46875.800781 29.863282 4.625 51.898438 30.332031 51.898438 60.554687 0 30.21875-22.035156 55.925782-51.898438 60.550782 22.785156 3.59375 45.65625-5.902344 59.199219-24.578126 13.539063-18.671874 15.457031-43.363281 4.960937-63.90625-10.492187-20.539062-31.625-33.453124-54.691406-33.421874zm0 0" fill="#f2754e"/><path d="m284.355469 307.804688 21.429687 21.421874 2.972656-23.265624 3.363282-26.371094-21.425782-21.425782zm0 0" fill="#f2754e"/><path d="m273.816406 390.359375-6.339844 49.640625 6.851563 6.847656h16.4375l4.472656-35.0625zm0 0" fill="#f2754e"/><path d="m113.441406 130.117188c-.402344-.003907-.804687-.03125-1.203125-.09375-12.558593-1.742188-22.578125-11.359376-24.832031-23.839844-.859375-4.332032 1.953125-8.546875 6.289062-9.410156 4.332032-.863282 8.546876 1.953124 9.410157 6.285156.957031 5.859375 5.644531 10.398437 11.53125 11.167968 4.144531.621094 7.109375 4.335938 6.792969 8.515626-.316407 4.179687-3.800782 7.40625-7.992188 7.398437zm0 0" fill="#f4c76c"/></svg>