<?xml version="1.0" encoding="iso-8859-1"?>
<!-- Generator: Adobe Illustrator 19.0.0, SVG Export Plug-In . SVG Version: 6.00 Build 0)  -->
<svg version="1.1" id="Capa_1" xmlns="http://www.w3.org/2000/svg" xmlns:xlink="http://www.w3.org/1999/xlink" x="0px" y="0px"
	 viewBox="0 0 512 512" style="enable-background:new 0 0 512 512;" xml:space="preserve">
<circle style="fill:#2DA1DC;" cx="256" cy="267" r="245"/>
<path style="fill:#FFBB88;" d="M375.5,271c-1.375,0-2.727,0.144-4.05,0.396c0.001,0,0.003-0.001,0.005-0.001
	c1.775-4.497,2.063-9.544,0.575-14.307c-1.862-5.957-6.096-10.53-11.337-13.011c0.2-1.171,0.307-2.367,0.307-3.578
	c0-11.855-9.645-21.5-21.5-21.5c-0.791,0-1.573,0.058-2.35,0.142c0.005-0.001,0.01-0.002,0.014-0.002
	c1.184-2.682,1.836-5.616,1.836-8.64c0-11.855-9.645-21.5-21.5-21.5c-4.613,0-9.013,1.442-12.723,4.171
	c-0.528,0.389-1.153,0.583-1.777,0.584c-0.625,0-1.25-0.194-1.777-0.584c-3.71-2.727-8.109-4.171-12.723-4.171
	c-6.917,0-13.065,3.297-17,8.387c0.001,0,0.002,0,0.003,0c-1.299-0.246-2.634-0.388-4.003-0.388c-4.613,0-9.014,1.442-12.723,4.171
	c-0.528,0.389-1.153,0.583-1.777,0.583c-0.625,0-1.25-0.194-1.777-0.583c-3.71-2.727-8.109-4.171-12.724-4.171
	c-3.175,0-6.18,0.71-8.895,1.95c0.001,0.002,0.002,0.003,0.003,0.005C225.784,192.98,219.106,189,211.5,189
	c-4.613,0-9.013,1.442-12.723,4.171c-0.528,0.389-1.153,0.583-1.777,0.584c-0.625,0-1.25-0.194-1.777-0.584
	c-3.71-2.727-8.109-4.171-12.723-4.171c-11.855,0-21.5,9.645-21.5,21.5c0,3.259,0.727,6.388,2.058,9.204
	c-8.626,2.219-15.146,9.587-15.967,18.874c-0.094,1.064-0.747,1.998-1.713,2.451c-5.046,2.37-8.875,6.6-10.859,11.629
	c-5.737,3.865-9.519,10.42-9.519,17.842c0,1.247,0.11,2.474,0.316,3.672C119.142,277.955,115,284.745,115,292.501
	c0,2.25,0.352,4.435,1.003,6.5h69.969c0.006-0.019,0.01-0.038,0.016-0.056c-0.008-0.026-0.014-0.053-0.021-0.079
	c0.014,0.044,0.023,0.09,0.037,0.135h69.969c0.006-0.019,0.01-0.038,0.016-0.056c-0.008-0.026-0.014-0.053-0.021-0.079
	c0.014,0.044,0.023,0.09,0.037,0.135h69.969c0.006-0.019,0.01-0.038,0.016-0.056c-0.008-0.026-0.014-0.053-0.022-0.079
	c0.014,0.044,0.023,0.09,0.037,0.135h69.969c0.664-2.075,1.028-4.262,1.028-6.5C397,280.645,387.356,271,375.5,271z"/>
<path style="fill:#FFFFFF;" d="M289,218.5c0,3.856-1.061,7.564-2.939,10.79c0.084,0.115,0.177,0.218,0.259,0.335
	c0.63,0.899,1.701,1.382,2.792,1.261c0.752-0.085,1.5-0.115,2.244-0.122c3.56-6.97,10.795-11.763,19.144-11.763
	c4.613,0,9.013,1.443,12.723,4.171c0.527,0.39,1.152,0.584,1.777,0.584c0.624-0.001,1.249-0.195,1.777-0.584
	c3.077-2.263,6.632-3.626,10.387-4.031c1.184-2.682,1.836-5.616,1.836-8.64c0-11.855-9.645-21.5-21.5-21.5
	c-4.613,0-9.013,1.442-12.723,4.171c-0.528,0.389-1.153,0.583-1.777,0.584c-0.625,0-1.25-0.194-1.777-0.584
	c-3.71-2.727-8.109-4.171-12.723-4.171c-6.917,0-13.065,3.297-17,8.387C281.449,199.269,289,208.012,289,218.5z"/>
<path style="fill:#FFBB88;" d="M233,210.5c0,5.585-2.208,10.865-5.939,14.802c3.425-2.162,7.347-3.302,11.439-3.302
	c5.507,0,10.52,2.099,14.328,5.516c1.554-1.693,3.389-3.18,5.516-4.354c9.515-5.25,21.344-2.599,27.718,6.128
	c1.878-3.226,2.939-6.934,2.939-10.79c0-11.855-9.645-21.5-21.5-21.5c-4.613,0-9.014,1.442-12.723,4.171
	c-0.528,0.389-1.153,0.583-1.777,0.583c-0.625,0-1.25-0.194-1.777-0.583c-3.71-2.727-8.109-4.171-12.724-4.171
	c-3.175,0-6.18,0.71-8.895,1.95C231.743,202.29,233,206.248,233,210.5z"/>
<path style="fill:#FFFFFF;" d="M168.5,219c10.185,0,18.796,7.06,20.963,16.77c-0.001-0.001-0.001-0.001-0.001-0.002
	C192.576,227.728,200.373,222,209.5,222c4.613,0,9.013,1.443,12.723,4.171c0.527,0.39,1.152,0.584,1.777,0.584
	c0.624-0.001,1.249-0.195,1.777-0.584c0.418-0.308,0.849-0.594,1.283-0.869c3.731-3.937,5.939-9.218,5.939-14.802
	c0-11.855-9.645-21.5-21.5-21.5c-4.613,0-9.013,1.442-12.723,4.171c-0.528,0.389-1.153,0.583-1.777,0.584
	c-0.625,0-1.25-0.194-1.777-0.584c-3.71-2.727-8.109-4.171-12.723-4.171c-11.855,0-21.5,9.645-21.5,21.5
	c0,3.259,0.727,6.388,2.058,9.204C164.798,219.256,166.617,219,168.5,219z"/>
<path style="fill:#EEF6FF;" d="M168.5,219c10.185,0,18.796,7.06,20.963,16.77c-0.001-0.001-0.001-0.001-0.001-0.002
	c0.85-2.193,2.058-4.206,3.536-5.986c-7.332-3.607-11.999-11.023-11.998-19.281c0-8.249,4.676-15.418,11.511-19.023
	c-3.069-1.623-6.475-2.477-10.011-2.477c-11.855,0-21.5,9.645-21.5,21.5c0,3.259,0.727,6.388,2.058,9.204
	C164.798,219.256,166.617,219,168.5,219z"/>
<path style="fill:#FFFFFF;" d="M211.315,105.532c8.993-6.351,21.254-4.917,28.52,3.334c0.725,0.823,1.843,1.186,2.914,0.944
	c8.521-1.93,17.283,1.433,22.32,8.566c6.839,9.683,4.523,23.126-5.16,29.965c-3.769,2.661-8.194,4.019-12.798,3.931
	c-0.656-0.014-1.279,0.189-1.789,0.548c-0.509,0.361-0.907,0.88-1.115,1.503c-1.456,4.368-4.218,8.085-7.986,10.745
	c-9.685,6.838-23.126,4.524-29.965-5.161c-4.786-6.777-5.225-15.823-1.12-23.044c0.527-0.926,0.523-2.067-0.015-2.99
	C199.488,124.189,202.153,112.003,211.315,105.532z"/>
<path style="fill:#EEF6FF;" d="M227.256,159.909c-4.786-6.777-5.225-15.823-1.12-23.044c0.527-0.926,0.523-2.067-0.015-2.99
	c-5.633-9.686-2.968-21.872,6.194-28.342c0.618-0.437,1.255-0.829,1.902-1.192c-7.043-3.956-15.946-3.721-22.902,1.192
	c-9.162,6.471-11.827,18.656-6.194,28.342c0.537,0.923,0.542,2.064,0.015,2.99c-4.104,7.221-3.666,16.267,1.12,23.044
	c6.408,9.074,18.611,11.677,28.09,6.345C231.619,164.736,229.173,162.624,227.256,159.909z"/>
<path style="fill:#FFFFFF;" d="M328.301,41.58c8.564,6.918,10.531,19.105,4.576,28.347c-0.594,0.922-0.638,2.096-0.113,3.061
	c4.183,7.671,3.34,17.018-2.148,23.811c-7.449,9.222-21.014,10.664-30.236,3.214c-3.588-2.899-6.103-6.786-7.275-11.239
	c-0.166-0.635-0.53-1.179-1.015-1.572c-0.486-0.391-1.095-0.632-1.751-0.662c-4.6-0.209-8.929-1.852-12.517-4.75
	c-9.223-7.451-10.664-21.013-3.214-30.236c5.213-6.454,13.796-9.345,21.863-7.367c1.035,0.254,2.131-0.062,2.873-0.83
	C307.125,35.294,319.574,34.531,328.301,41.58z"/>
<path style="fill:#EEF6FF;" d="M321.07,89.251c-3.588-2.899-6.103-6.786-7.275-11.239c-0.166-0.635-0.53-1.179-1.015-1.572
	c-0.486-0.391-1.095-0.632-1.751-0.662c-4.6-0.209-8.929-1.852-12.517-4.75c-8.307-6.711-10.276-18.371-5.146-27.361
	c-7.098-0.66-14.211,2.256-18.759,7.887c-7.45,9.223-6.009,22.785,3.214,30.236c3.588,2.899,7.917,4.542,12.517,4.75
	c0.656,0.03,1.265,0.271,1.751,0.662c0.484,0.393,0.849,0.937,1.015,1.572c1.173,4.453,3.688,8.339,7.275,11.239
	c9.223,7.449,22.787,6.008,30.236-3.214c0.74-0.916,1.389-1.881,1.959-2.879C328.498,93.543,324.486,92.01,321.07,89.251z"/>
<path style="fill:#FFFFFF;" d="M413.209,193.168c8.66-6.798,20.977-5.988,28.652,1.884c0.766,0.785,1.899,1.091,2.957,0.795
	c8.413-2.36,17.334,0.553,22.727,7.423c7.321,9.324,5.691,22.867-3.634,30.188c-3.629,2.848-7.979,4.429-12.582,4.576
	c-0.656,0.02-1.268,0.253-1.759,0.637c-0.489,0.387-0.861,0.926-1.037,1.559c-1.233,4.436-3.803,8.288-7.432,11.136
	c-9.325,7.321-22.866,5.691-30.188-3.634c-5.124-6.525-6.021-15.538-2.287-22.958c0.479-0.952,0.416-2.091-0.166-2.986
	C402.344,212.4,404.387,200.095,413.209,193.168z"/>
<path style="fill:#EEF6FF;" d="M431.789,247.732c-5.124-6.525-6.021-15.538-2.287-22.958c0.479-0.952,0.416-2.091-0.166-2.986
	c-6.117-9.388-4.074-21.692,4.748-28.62c0.914-0.717,1.875-1.331,2.861-1.879c-7.389-4.13-16.751-3.605-23.736,1.879
	c-8.822,6.928-10.865,19.232-4.748,28.62c0.582,0.895,0.645,2.034,0.166,2.986c-3.733,7.42-2.837,16.432,2.287,22.958
	c6.604,8.411,18.259,10.536,27.325,5.504C435.813,251.888,433.608,250.048,431.789,247.732z"/>
<path style="fill:#FFFFFF;" d="M55.084,198.606c8.66-6.799,20.977-5.988,28.652,1.884c0.766,0.785,1.899,1.091,2.957,0.796
	c8.413-2.36,17.334,0.553,22.727,7.423c7.321,9.324,5.69,22.867-3.634,30.189c-3.629,2.848-7.979,4.429-12.582,4.576
	c-0.656,0.02-1.268,0.253-1.759,0.637c-0.489,0.387-0.861,0.926-1.037,1.559c-1.233,4.436-3.803,8.288-7.432,11.136
	c-9.325,7.321-22.866,5.691-30.188-3.634c-5.124-6.525-6.021-15.538-2.287-22.957c0.479-0.952,0.416-2.091-0.166-2.986
	C44.219,217.838,46.262,205.534,55.084,198.606z"/>
<path style="fill:#EEF6FF;" d="M73.788,253.17c-5.124-6.525-6.021-15.538-2.287-22.957c0.479-0.952,0.416-2.091-0.166-2.986
	c-6.117-9.388-4.074-21.692,4.748-28.62c0.896-0.703,1.838-1.305,2.803-1.846c-7.398-4.17-16.796-3.654-23.802,1.846
	c-8.822,6.928-10.865,19.232-4.748,28.62c0.582,0.895,0.645,2.035,0.166,2.986c-3.733,7.42-2.837,16.432,2.287,22.957
	c6.619,8.432,18.314,10.546,27.39,5.468C77.775,257.293,75.592,255.468,73.788,253.17z"/>
<path style="fill:#FFD782;" d="M218.301,4.819c8.564,6.918,10.531,19.104,4.576,28.347c-0.594,0.922-0.638,2.096-0.113,3.061
	c4.183,7.672,3.34,17.019-2.148,23.812c-7.449,9.222-21.014,10.663-30.236,3.214c-3.588-2.899-6.103-6.786-7.275-11.238
	c-0.166-0.636-0.53-1.18-1.015-1.572c-0.486-0.391-1.095-0.632-1.751-0.662c-4.6-0.209-8.929-1.852-12.517-4.75
	c-9.223-7.451-10.664-21.014-3.214-30.236c5.213-6.454,13.796-9.345,21.863-7.367c1.035,0.255,2.131-0.062,2.873-0.83
	C197.125-1.468,209.574-2.23,218.301,4.819z"/>
<path style="fill:#FFC248;" d="M200.538,53.235c-3.588-2.9-6.103-6.787-7.275-11.239c-0.166-0.635-0.53-1.179-1.015-1.572
	c-0.486-0.39-1.095-0.631-1.751-0.662c-4.6-0.209-8.929-1.851-12.517-4.75c-7.932-6.409-10.09-17.33-5.805-26.131
	c-2.891,1.357-5.498,3.348-7.568,5.912c-7.45,9.223-6.009,22.785,3.214,30.236c3.588,2.898,7.917,4.541,12.517,4.75
	c0.656,0.03,1.265,0.271,1.751,0.662c0.484,0.393,0.849,0.937,1.015,1.572c1.173,4.452,3.688,8.339,7.275,11.238
	c9.223,7.449,22.787,6.008,30.236-3.214c1.042-1.29,1.915-2.673,2.619-4.119C216.008,59.324,207.159,58.582,200.538,53.235z"/>
<path style="fill:#FFD3B6;" d="M312.924,253.648c1.389-0.823,2.885-1.512,4.492-2.014c4.403-1.377,9.032-1.312,13.388,0.186
	c0.619,0.214,1.273,0.213,1.871,0.027c0.595-0.187,1.133-0.559,1.521-1.087c2.727-3.711,6.496-6.4,10.898-7.777
	c5.358-1.675,10.886-1.135,15.599,1.096c0.2-1.171,0.307-2.367,0.307-3.578c0-11.855-9.645-21.5-21.5-21.5
	c-4.613,0-9.013,1.442-12.723,4.171c-0.528,0.389-1.153,0.583-1.777,0.584c-0.625,0-1.25-0.194-1.777-0.584
	c-3.71-2.727-8.109-4.171-12.723-4.171c-8.349,0-15.584,4.794-19.144,11.763c7.85-0.07,15.141,4.115,18.994,11.101
	C312.411,245.599,313.199,249.679,312.924,253.648z"/>
<path style="fill:#FFD782;" d="M260,243.5c0,2.569-0.474,5.073-1.341,7.414c2.696-1.228,5.688-1.914,8.841-1.914
	c4.613,0,9.013,1.443,12.723,4.171c0.527,0.39,1.152,0.584,1.777,0.584c0.624-0.001,1.249-0.195,1.777-0.584
	c3.71-2.729,8.109-4.17,12.723-4.171c5.663,0,10.807,2.217,14.65,5.809c-0.001-0.001-0.002-0.002-0.003-0.003
	c0.565-0.414,1.16-0.794,1.771-1.155c0.278-3.969-0.506-8.05-2.567-11.787c-4.219-7.648-12.556-11.957-21.238-10.979
	c-1.091,0.121-2.162-0.361-2.792-1.261c-6.311-9.002-18.337-11.781-27.977-6.462c-2.127,1.174-3.962,2.661-5.516,4.354
	C257.218,231.455,260,237.152,260,243.5z"/>
<path style="fill:#EEF6FF;" d="M372.03,257.088c-3.537-11.314-15.619-17.644-26.936-14.106c-4.402,1.377-8.172,4.065-10.898,7.777
	c-0.389,0.529-0.927,0.901-1.521,1.087c-0.598,0.186-1.252,0.188-1.871-0.027c-4.355-1.497-8.984-1.562-13.388-0.186
	c-2.315,0.724-4.414,1.813-6.268,3.172c4.204,3.927,6.853,9.501,6.853,15.694c0,1.431-0.158,2.839-0.44,4.213
	c-0.102-0.07-0.211-0.13-0.315-0.198c4.105,2.691,7.244,6.74,8.755,11.513c2.754-8.701,10.9-15.027,20.5-15.027
	c4.613,0,9.013,1.443,12.723,4.171c0.527,0.39,1.152,0.584,1.777,0.584c0.624,0,1.249-0.195,1.777-0.584
	c2.605-1.917,5.556-3.183,8.678-3.776C373.231,266.898,373.519,261.85,372.03,257.088z"/>
<path style="fill:#FFD3B6;" d="M243.262,253.667c2.609,0.993,4.89,2.465,6.833,4.247c0.008-0.005,0.016-0.011,0.023-0.016
	c2.187-3.006,5.126-5.429,8.541-6.983c0.867-2.341,1.341-4.845,1.341-7.414c0-11.855-9.645-21.5-21.5-21.5
	c-4.613,0-9.013,1.442-12.723,4.171c-0.528,0.389-1.153,0.583-1.777,0.584c-0.625,0-1.25-0.194-1.777-0.584
	c-3.71-2.727-8.109-4.171-12.723-4.171c-9.127,0-16.924,5.727-20.038,13.768c0.176,0.788,0.323,1.586,0.411,2.406
	c0.117,1.092,0.822,2.032,1.836,2.453c2.385,0.986,4.494,2.387,6.318,4.063c5.361-2.991,11.957-3.688,18.131-1.338
	c4.311,1.641,7.91,4.554,10.407,8.424c0.354,0.552,0.869,0.955,1.453,1.178c0.584,0.222,1.237,0.262,1.869,0.087
	C234.325,251.809,238.95,252.027,243.262,253.667z"/>
<path style="fill:#FFFFFF;" d="M296.5,249c-4.613,0.001-9.013,1.442-12.723,4.171c-0.528,0.389-1.153,0.583-1.777,0.584
	c-0.625,0-1.25-0.194-1.777-0.584c-3.71-2.728-8.109-4.171-12.723-4.171c-7.146,0-13.47,3.518-17.382,8.897
	c6.306,5.78,8.813,15.042,5.591,23.511c-0.242,0.637-0.524,1.25-0.825,1.853c0.428,0.894,0.813,1.811,1.116,2.767
	c2.754-8.701,10.9-15.027,20.5-15.027c4.613,0,9.013,1.443,12.723,4.171c0.527,0.39,1.152,0.584,1.777,0.584
	c0.624,0,1.249-0.195,1.777-0.584c3.71-2.729,8.109-4.17,12.723-4.171c4.467,0,8.619,1.372,12.06,3.713
	c0.281-1.374,0.44-2.782,0.44-4.213C318,258.645,308.356,249,296.5,249z"/>
<path style="fill:#FFD782;" d="M146.5,249c4.613,0,9.013,1.443,12.723,4.171c0.527,0.39,1.152,0.584,1.777,0.584
	c0.624-0.001,1.249-0.195,1.777-0.584c3.71-2.729,8.109-4.17,12.723-4.171c5.211,0,9.993,1.866,13.719,4.962
	c1.979-4.03,5.11-7.186,8.824-9.258c-1.827-1.683-3.942-3.088-6.334-4.077c-1.014-0.421-1.719-1.361-1.836-2.453
	C188.697,227.243,179.51,219,168.5,219c-11.217,0-20.422,8.417-21.409,19.578c-0.094,1.064-0.747,1.998-1.713,2.451
	c-5.046,2.37-8.875,6.6-10.859,11.629C137.944,250.35,142.067,249,146.5,249z"/>
<path style="fill:#FFC248;" d="M146.5,249c3.082,0,6.061,0.658,8.811,1.898c2.131-4.247,5.623-7.782,10.067-9.869
	c0.966-0.453,1.619-1.387,1.713-2.451c0.669-7.556,5.109-13.843,11.385-17.123c-2.99-1.564-6.382-2.455-9.976-2.455
	c-11.217,0-20.422,8.417-21.409,19.578c-0.094,1.064-0.747,1.998-1.713,2.451c-5.046,2.37-8.875,6.6-10.859,11.629
	C137.944,250.35,142.067,249,146.5,249z"/>
<path style="fill:#FFFFFF;" d="M136.5,271c4.613,0,9.013,1.443,12.723,4.171c0.527,0.39,1.152,0.584,1.777,0.584
	c0.624,0,1.249-0.195,1.777-0.584c3.71-2.729,8.109-4.17,12.723-4.171c9.6,0,17.746,6.326,20.5,15.027
	c1.749-5.527,5.683-10.08,10.775-12.677c0.131-0.939,0.225-1.887,0.225-2.85c0-11.855-9.645-21.5-21.5-21.5
	c-4.613,0.001-9.013,1.442-12.723,4.171c-0.528,0.389-1.153,0.583-1.777,0.584c-0.625,0-1.25-0.194-1.777-0.584
	c-3.71-2.728-8.109-4.171-12.723-4.171c-11.855,0-21.5,9.646-21.5,21.5c0,1.247,0.11,2.474,0.316,3.672
	C128.58,272.174,132.4,271,136.5,271z"/>
<path style="fill:#EEF6FF;" d="M136.5,271c3.02,0,5.941,0.629,8.645,1.821c-0.085-0.765-0.145-1.537-0.145-2.32
	c0-8.249,4.676-15.418,11.512-19.023c-3.07-1.623-6.477-2.477-10.012-2.477c-11.855,0-21.5,9.646-21.5,21.5
	c0,1.247,0.11,2.474,0.316,3.672C128.58,272.174,132.4,271,136.5,271z"/>
<path style="fill:#FFDD8D;" d="M185,292.501c0-2.255,0.354-4.429,1-6.473C183.246,277.326,175.1,271,165.5,271
	c-4.613,0-9.013,1.442-12.723,4.171c-0.528,0.389-1.153,0.583-1.777,0.584c-0.625,0-1.25-0.194-1.777-0.584
	c-3.71-2.728-8.109-4.171-12.723-4.171c-11.855,0-21.5,9.646-21.5,21.5c0,2.25,0.352,4.435,1.003,6.5h69.969
	c0.006-0.019,0.01-0.038,0.016-0.056C185.348,296.895,185,294.73,185,292.501z"/>
<path style="fill:#FFC248;" d="M136.003,299.001c-0.651-2.065-1.003-4.25-1.003-6.5c0-8.249,4.676-15.418,11.512-19.023
	c-3.07-1.623-6.477-2.478-10.012-2.478c-11.855,0-21.5,9.646-21.5,21.5c0,2.25,0.352,4.435,1.003,6.5h20V299.001z"/>
<path style="fill:#FFD3B6;" d="M255,292.501c0-2.255,0.354-4.429,1-6.473C253.246,277.326,245.1,271,235.5,271
	c-4.613,0-9.013,1.442-12.723,4.171c-0.528,0.389-1.153,0.583-1.777,0.584c-0.625,0-1.25-0.194-1.777-0.584
	c-3.71-2.728-8.109-4.171-12.723-4.171c-11.855,0-21.5,9.646-21.5,21.5c0,2.25,0.352,4.435,1.003,6.5h69.969
	c0.006-0.019,0.01-0.038,0.016-0.056C255.348,296.895,255,294.73,255,292.501z"/>
<path style="fill:#FFDD8D;" d="M325,292.501c0-2.255,0.353-4.429,1-6.473C323.246,277.326,315.1,271,305.5,271
	c-4.613,0-9.013,1.442-12.723,4.171c-0.528,0.389-1.153,0.583-1.777,0.584c-0.625,0-1.25-0.194-1.777-0.584
	c-3.71-2.728-8.109-4.171-12.723-4.171c-11.855,0-21.5,9.646-21.5,21.5c0,2.25,0.352,4.435,1.003,6.5h69.969
	c0.006-0.019,0.01-0.038,0.016-0.056C325.348,296.895,325,294.73,325,292.501z"/>
<path style="fill:#FFD3B6;" d="M395.972,299.001c0.664-2.075,1.028-4.262,1.028-6.5c0-11.855-9.645-21.5-21.5-21.5
	c-4.613,0-9.013,1.442-12.723,4.171c-0.528,0.389-1.153,0.583-1.777,0.584c-0.625,0-1.25-0.194-1.777-0.584
	c-3.71-2.728-8.109-4.171-12.723-4.171c-11.855,0-21.5,9.646-21.5,21.5c0,2.25,0.352,4.435,1.003,6.5H395.972z"/>
<path style="fill:#E52E49;" d="M129.425,351.88l27.431,139.214C187.169,504.525,220.709,512,256,512s68.832-7.476,99.146-20.907
	l27.43-139.213H129.425z"/>
<path style="fill:#C0272D;" d="M129.425,351.88l27.431,139.214c6.376,2.825,12.902,5.37,19.551,7.654L149.56,351.88H129.425z"/>
<g>
	<polygon style="fill:#960B15;" points="155.821,351.88 133.77,373.931 137.489,392.809 178.419,351.88 	"/>
	<path style="fill:#960B15;" d="M222.898,378.921l27.041-27.041h-22.598l-81.799,81.799l3.72,18.878l57.328-57.328
		C210.915,388.793,216.462,383.246,222.898,378.921z"/>
	<path style="fill:#960B15;" d="M292.188,381.152l29.271-29.272H298.86l-21.097,21.096
		C282.969,375.029,287.816,377.792,292.188,381.152z"/>
	<path style="fill:#960B15;" d="M200.645,450.095l-41.848,41.848c5.321,2.303,10.741,4.42,16.25,6.349l33.773-33.772
		C205.46,460.148,202.698,455.3,200.645,450.095z"/>
	<path style="fill:#960B15;" d="M256,487.828c-6.488,0-12.73-1.059-18.581-2.987l-23.539,23.54
		c6.574,1.139,13.24,2.009,19.983,2.613l23.192-23.192C256.703,487.808,256.354,487.828,256,487.828z"/>
	<path style="fill:#960B15;" d="M370.381,351.88l-57.871,57.872c1.928,5.851,2.986,12.093,2.986,18.581
		c0,0.354-0.021,0.703-0.027,1.056l64.554-64.553l2.553-12.955h-12.195V351.88z"/>
</g>
<path style="fill:#FFFFFF;" d="M118,336v12c0,2.75,2.25,5,5,5h266c2.75,0,5-2.25,5-5v-12H118z"/>
<path style="fill:#D9EAFC;" d="M138,348v-12h-20v12c0,2.75,2.25,5,5,5h20C140.25,353,138,350.75,138,348z"/>
<path style="fill:#960B15;" d="M310.461,505.916l52.012-52.012l5.545-28.143l-84.717,84.717
	C292.518,509.456,301.582,507.931,310.461,505.916z"/>
<path style="fill:#FE3745;" d="M406,332c0,2.75-2.25,5-5,5H111c-2.75,0-5-2.25-5-5v-29c0-2.75,2.25-5,5-5h290c2.75,0,5,2.25,5,5V332
	z"/>
<path style="fill:#E52E49;" d="M136,332v-29c0-2.75,2.25-5,5-5h-30c-2.75,0-5,2.25-5,5v29c0,2.75,2.25,5,5,5h30
	C138.25,337,136,334.75,136,332z"/>
<circle style="fill:#FFFFFF;" cx="256" cy="428.33" r="60.5"/>
<path style="fill:#D9EAFC;" d="M206,428.332c0-31.643,24.296-57.594,55.248-60.255c-1.731-0.149-3.478-0.241-5.248-0.241
	c-33.412,0-60.496,27.084-60.496,60.497c0,33.412,27.084,60.497,60.496,60.497c1.77,0,3.517-0.092,5.248-0.241
	C230.296,485.925,206,459.974,206,428.332z"/>
<circle style="fill:#FFD3B6;" cx="364" cy="166" r="17"/>
<circle style="fill:#FFDD8D;" cx="389" cy="28" r="17"/>
<circle style="fill:#FFD3B6;" cx="139" cy="122" r="17"/>
<path style="fill:#FFAF10;" d="M282.101,471c-0.807,0-1.61-0.198-2.324-0.574l-21.449-11.276c-0.728-0.383-1.528-0.574-2.327-0.574
	s-1.599,0.191-2.327,0.574l-21.448,11.276c-0.715,0.376-1.518,0.575-2.325,0.575c-1.064,0-2.08-0.33-2.94-0.955
	c-1.55-1.126-2.313-3.001-1.988-4.891l4.095-23.882c0.278-1.622-0.26-3.277-1.438-4.426l-17.352-16.914
	c-1.373-1.338-1.857-3.302-1.265-5.126c0.592-1.822,2.139-3.126,4.036-3.402l23.98-3.484c1.629-0.237,3.037-1.26,3.765-2.735
	l10.724-21.73c0.849-1.719,2.567-2.787,4.484-2.787s3.636,1.068,4.484,2.787l10.724,21.73c0.727,1.476,2.136,2.499,3.765,2.735
	l23.98,3.484c1.897,0.275,3.444,1.58,4.037,3.403c0.592,1.823,0.107,3.787-1.266,5.125l-17.353,16.914
	c-1.178,1.149-1.716,2.804-1.438,4.426l4.096,23.883c0.323,1.889-0.44,3.764-1.99,4.891C284.181,470.67,283.164,471,282.101,471z"/>
<path style="fill:#EF9614;" d="M241.135,464.287l4.701-27.421c0.319-1.862-0.299-3.762-1.65-5.081l-19.924-19.42
	c-0.695-0.677-1.179-1.497-1.458-2.378l-9.757,1.417c-1.898,0.275-3.444,1.58-4.036,3.402c-0.593,1.824-0.108,3.788,1.265,5.126
	l17.352,16.914c1.178,1.149,1.716,2.804,1.438,4.426l-4.095,23.882c-0.324,1.89,0.438,3.765,1.988,4.891
	c0.86,0.625,1.877,0.955,2.94,0.955c0.807,0,1.61-0.198,2.325-0.575l8.855-4.655C241.037,465.283,241.049,464.786,241.135,464.287z"
	/>
<path style="fill:#FFBB88;" d="M243.262,253.667c-4.312-1.641-8.937-1.858-13.374-0.627c-0.632,0.175-1.285,0.135-1.869-0.087
	c-0.584-0.223-1.099-0.626-1.453-1.178c-2.497-3.87-6.096-6.783-10.407-8.424c-10.449-3.977-22.107,0.765-26.939,10.61
	c4.75,3.947,7.781,9.894,7.781,16.538c0,0.963-0.094,1.911-0.225,2.85c-0.003,0.001-0.006,0.004-0.01,0.005
	c2.924-1.5,6.228-2.355,9.734-2.355c4.613,0,9.013,1.443,12.723,4.171c0.527,0.39,1.152,0.584,1.777,0.584
	c0.624,0,1.249-0.195,1.777-0.584c3.71-2.729,8.109-4.17,12.723-4.171c8.545,0,15.92,5.023,19.384,12.261
	c0.301-0.603,0.583-1.216,0.825-1.853C259.925,270.328,254.342,257.884,243.262,253.667z"/>
<g>
</g>
<g>
</g>
<g>
</g>
<g>
</g>
<g>
</g>
<g>
</g>
<g>
</g>
<g>
</g>
<g>
</g>
<g>
</g>
<g>
</g>
<g>
</g>
<g>
</g>
<g>
</g>
<g>
</g>
</svg>
