<svg xmlns="http://www.w3.org/2000/svg" style="display: none;"><symbol id="poop" viewBox="-26 0 512 512.00331"><title>poop</title><g fill-rule="evenodd"><path d="m379.890625 395.730469h-316.753906c-29.226563 0-53.136719 23.910156-53.136719 53.132812 0 29.226563 23.910156 53.136719 53.136719 53.136719h333.726562c29.226563 0 53.136719-23.910156 53.136719-53.136719 0-29.222656-23.910156-53.132812-53.136719-53.132812zm0 0" fill="#c58965"/><path d="m63.515625 357.355469c0 15.046875 6.382813 28.683593 16.59375 38.375h299.78125c10.582031-10.042969 16.597656-23.828125 16.597656-38.375 0-29.226563-24.082031-53.136719-53.515625-53.136719h-225.945312c-29.433594 0-53.511719 23.910156-53.511719 53.136719zm0 0" fill="#dca98a"/><path d="m121.242188 304.21875h218.496093c18.308594-36.726562 4.808594-93.855469-66.628906-112.863281-49.558594-13.183594-52.238281-52.964844-48.492187-78.085938 1.539062-10.324219-5.734376-15.308593-16.675782-7.308593-58.304687 42.648437-57.480468 89.972656-37.398437 124.507812-29.433594 0-53.515625 23.910156-53.515625 53.136719 0 7.296875 1.503906 14.265625 4.214844 20.613281zm0 0" fill="#c58965"/></g><path d="m399.582031 385.800781c4.472657-8.769531 6.902344-18.523437 6.902344-28.445312 0-31.105469-22.75-57.011719-52.574219-62.179688 5.300782-18.5625 3.921875-39.039062-4.207031-57.046875-8.605469-19.050781-28.429687-44.308594-74.023437-56.4375-32.648438-8.6875-46.503907-31.210937-41.175782-66.949218 1.332032-8.910157-1.660156-16.515626-8-20.347657-3.242187-1.960937-12.113281-5.539062-24.46875 3.496094-9.441406 6.90625-17.777344 14.222656-24.777344 21.753906-3.757812 4.042969-3.527343 10.371094.515626 14.132813 4.046874 3.757812 10.375 3.527344 14.132812-.515625 6.136719-6.601563 13.519531-13.070313 21.9375-19.226563.21875-.160156.425781-.308594.625-.445312-2.394531 17.800781-.636719 33.667968 5.234375 47.179687 8.703125 20.046875 25.808594 33.589844 50.835937 40.25 38.007813 10.113281 54.117188 30.238281 60.9375 45.34375 6.863282 15.203125 7.402344 32.675781 1.703126 47.855469h-204.8125c-.890626-3.445312-1.339844-7-1.339844-10.613281 0-23.734375 19.433594-43.050781 43.359375-43.132813h.34375 69.304687c5.523438 0 10-4.480468 10-10 0-5.523437-4.476562-10-10-10h-63.539062c-3.273438-6.527344-5.605469-13.191406-6.953125-19.871094-1.089844-5.414062-6.359375-8.917968-11.777344-7.828124-5.414063 1.089843-8.917969 6.363281-7.824219 11.777343 1.203125 5.972657 3.015625 11.90625 5.417969 17.742188-27.714844 6.78125-48.332031 31.699219-48.332031 61.3125 0 3.808593.359375 7.566406 1.035156 11.257812-30.789062 4.34375-54.546875 30.707031-54.546875 62.492188 0 9.921875 2.429687 19.675781 6.902344 28.445312-33.554688 1.429688-60.417969 29.167969-60.417969 63.066407 0 34.8125 28.324219 63.136718 63.136719 63.136718h333.726562c34.8125 0 63.136719-28.324218 63.136719-63.136718-.003906-33.902344-26.863281-61.636719-60.417969-63.066407zm-2.71875 106.199219h-333.726562c-23.785157 0-43.136719-19.351562-43.136719-43.132812 0-23.785157 19.351562-43.136719 43.136719-43.136719h216.753906c5.523437 0 10-4.476563 10-10 0-5.523438-4.476563-10-10-10h-195.542969c-7.003906-7.882813-10.832031-17.820313-10.832031-28.375 0-23.785157 19.519531-43.136719 43.511719-43.136719h4.1875c.011718 0 .023437.003906.03125.003906.019531 0 .035156-.003906.050781-.003906h218.390625c.011719 0 .027344.003906.042969.003906.011719 0 .023437-.003906.035156-.003906h3.207031c23.992188 0 43.515625 19.351562 43.515625 43.136719 0 10.554687-3.828125 20.492187-10.835937 28.375h-15.761719c-5.519531 0-9.996094 4.476562-9.996094 10 0 5.523437 4.476563 10 9.996094 10h36.976563c23.78125 0 43.132812 19.351562 43.132812 43.136719 0 23.78125-19.351562 43.132812-43.136719 43.132812zm0 0"/><path d="m218.984375 52.261719c-2.761719 4.785156-1.121094 10.898437 3.660156 13.660156 1.574219.910156 3.292969 1.34375 4.988281 1.34375 3.457032 0 6.820313-1.796875 8.671876-5.003906 8.628906-14.949219 3.925781-26.316407.8125-33.835938-2.714844-6.566406-3.449219-8.859375-.8125-13.421875 2.761718-4.785156 1.121093-10.902344-3.660157-13.664062-4.78125-2.757813-10.898437-1.121094-13.660156 3.660156-7.691406 13.320312-3.269531 24.003906-.347656 31.074219 2.695312 6.511719 4.046875 9.777343.347656 16.1875zm0 0"/><path d="m328 141.253906c-2.761719 4.785156-1.121094 10.898438 3.660156 13.660156 1.574219.910157 3.292969 1.34375 4.992188 1.34375 3.453125 0 6.816406-1.792968 8.667968-5 8.632813-14.949218 3.929688-26.316406.8125-33.839843-2.714843-6.5625-3.449218-8.855469-.8125-13.421875 2.761719-4.785156 1.125-10.898438-3.660156-13.660156-4.785156-2.761719-10.898437-1.125-13.660156 3.660156-7.6875 13.320312-3.269531 24-.34375 31.070312 2.695312 6.507813 4.046875 9.777344.34375 16.1875zm0 0"/><path d="m70.171875 207.710938c-2.761719 4.78125-1.125 10.898437 3.660156 13.65625 1.574219.910156 3.292969 1.34375 4.988281 1.34375 3.457032 0 6.820313-1.792969 8.671876-5 8.628906-14.949219 3.925781-26.316407.8125-33.839844-2.714844-6.5625-3.449219-8.859375-.8125-13.421875 2.761718-4.78125 1.121093-10.898438-3.660157-13.660157-4.78125-2.761718-10.898437-1.125-13.660156 3.660157-7.691406 13.320312-3.273437 24.003906-.347656 31.070312 2.695312 6.511719 4.050781 9.777344.347656 16.191407zm0 0"/><path d="m319.894531 385.730469h-.007812c-5.519531 0-9.996094 4.476562-9.996094 10 0 5.523437 4.480469 10 10.003906 10 5.523438 0 10-4.476563 10-10 0-5.523438-4.476562-10-10-10zm0 0"/><path d="m158.832031 170.191406c1.285157.550782 2.621094.8125 3.933594.8125 3.882813 0 7.574219-2.273437 9.199219-6.066406 2.175781-5.074219-.175782-10.957031-5.25-13.128906-5.078125-2.175782-10.957032.175781-13.132813 5.25l-.003906.007812c-2.171875 5.074219.179687 10.949219 5.253906 13.125zm0 0"/></symbol><symbol id="poop-1" viewBox="-26 0 512 512.00331"><title>poop-1</title><path d="m399.582031 385.800781c4.472657-8.769531 6.902344-18.523437 6.902344-28.445312 0-31.105469-22.75-57.011719-52.574219-62.179688 5.300782-18.5625 3.921875-39.039062-4.207031-57.046875-8.605469-19.050781-28.429687-44.308594-74.023437-56.4375-32.648438-8.6875-46.503907-31.210937-41.175782-66.949218 1.332032-8.910157-1.660156-16.515626-8-20.347657-3.242187-1.960937-12.113281-5.539062-24.46875 3.496094-9.441406 6.90625-17.777344 14.222656-24.777344 21.753906-3.757812 4.042969-3.527343 10.371094.515626 14.132813 4.046874 3.757812 10.375 3.527344 14.132812-.515625 6.136719-6.601563 13.519531-13.070313 21.9375-19.226563.21875-.160156.425781-.308594.625-.445312-2.394531 17.800781-.636719 33.667968 5.234375 47.179687 8.703125 20.046875 25.808594 33.589844 50.835937 40.25 38.007813 10.113281 54.117188 30.238281 60.9375 45.34375 6.863282 15.203125 7.402344 32.675781 1.703126 47.855469h-204.8125c-.890626-3.445312-1.339844-7-1.339844-10.613281 0-23.734375 19.433594-43.050781 43.359375-43.132813h.34375 69.304687c5.523438 0 10-4.480468 10-10 0-5.523437-4.476562-10-10-10h-63.539062c-3.273438-6.527344-5.605469-13.191406-6.953125-19.871094-1.089844-5.414062-6.359375-8.917968-11.777344-7.828124-5.414063 1.089843-8.917969 6.363281-7.824219 11.777343 1.203125 5.972657 3.015625 11.90625 5.417969 17.742188-27.714844 6.78125-48.332031 31.699219-48.332031 61.3125 0 3.808593.359375 7.566406 1.035156 11.257812-30.789062 4.34375-54.546875 30.707031-54.546875 62.492188 0 9.921875 2.429687 19.675781 6.902344 28.445312-33.554688 1.429688-60.417969 29.167969-60.417969 63.066407 0 34.8125 28.324219 63.136718 63.136719 63.136718h333.726562c34.8125 0 63.136719-28.324218 63.136719-63.136718-.003906-33.902344-26.863281-61.636719-60.417969-63.066407zm-2.71875 106.199219h-333.726562c-23.785157 0-43.136719-19.351562-43.136719-43.132812 0-23.785157 19.351562-43.136719 43.136719-43.136719h216.753906c5.523437 0 10-4.476563 10-10 0-5.523438-4.476563-10-10-10h-195.542969c-7.003906-7.882813-10.832031-17.820313-10.832031-28.375 0-23.785157 19.519531-43.136719 43.511719-43.136719h4.1875c.011718 0 .023437.003906.03125.003906.019531 0 .035156-.003906.050781-.003906h218.390625c.011719 0 .027344.003906.042969.003906.011719 0 .023437-.003906.035156-.003906h3.207031c23.992188 0 43.515625 19.351562 43.515625 43.136719 0 10.554687-3.828125 20.492187-10.835937 28.375h-15.761719c-5.519531 0-9.996094 4.476562-9.996094 10 0 5.523437 4.476563 10 9.996094 10h36.976563c23.78125 0 43.132812 19.351562 43.132812 43.136719 0 23.78125-19.351562 43.132812-43.136719 43.132812zm0 0"/><path d="m218.984375 52.261719c-2.761719 4.785156-1.121094 10.898437 3.660156 13.660156 1.574219.910156 3.292969 1.34375 4.988281 1.34375 3.457032 0 6.820313-1.796875 8.671876-5.003906 8.628906-14.949219 3.925781-26.316407.8125-33.835938-2.714844-6.566406-3.449219-8.859375-.8125-13.421875 2.761718-4.785156 1.121093-10.902344-3.660157-13.664062-4.78125-2.757813-10.898437-1.121094-13.660156 3.660156-7.691406 13.320312-3.269531 24.003906-.347656 31.074219 2.695312 6.511719 4.046875 9.777343.347656 16.1875zm0 0"/><path d="m328 141.253906c-2.761719 4.785156-1.121094 10.898438 3.660156 13.660156 1.574219.910157 3.292969 1.34375 4.992188 1.34375 3.453125 0 6.816406-1.792968 8.667968-5 8.632813-14.949218 3.929688-26.316406.8125-33.839843-2.714843-6.5625-3.449218-8.855469-.8125-13.421875 2.761719-4.785156 1.125-10.898438-3.660156-13.660156-4.785156-2.761719-10.898437-1.125-13.660156 3.660156-7.6875 13.320312-3.269531 24-.34375 31.070312 2.695312 6.507813 4.046875 9.777344.34375 16.1875zm0 0"/><path d="m70.171875 207.710938c-2.761719 4.78125-1.125 10.898437 3.660156 13.65625 1.574219.910156 3.292969 1.34375 4.988281 1.34375 3.457032 0 6.820313-1.792969 8.671876-5 8.628906-14.949219 3.925781-26.316407.8125-33.839844-2.714844-6.5625-3.449219-8.859375-.8125-13.421875 2.761718-4.78125 1.121093-10.898438-3.660157-13.660157-4.78125-2.761718-10.898437-1.125-13.660156 3.660157-7.691406 13.320312-3.273437 24.003906-.347656 31.070312 2.695312 6.511719 4.050781 9.777344.347656 16.191407zm0 0"/><path d="m319.894531 385.730469h-.007812c-5.519531 0-9.996094 4.476562-9.996094 10 0 5.523437 4.480469 10 10.003906 10 5.523438 0 10-4.476563 10-10 0-5.523438-4.476562-10-10-10zm0 0"/><path d="m158.832031 170.191406c1.285157.550782 2.621094.8125 3.933594.8125 3.882813 0 7.574219-2.273437 9.199219-6.066406 2.175781-5.074219-.175782-10.957031-5.25-13.128906-5.078125-2.175782-10.957032.175781-13.132813 5.25l-.003906.007812c-2.171875 5.074219.179687 10.949219 5.253906 13.125zm0 0"/></symbol><symbol id="eye" viewBox="0 0 423.163 423.163"><title>eye</title><path style="fill:#81B6B2;" d="M206.678,132.113c-46.574,0-84.327,37.754-84.327,84.326c0,46.574,37.753,84.328,84.327,84.328 s84.327-37.754,84.327-84.328C291.004,169.867,253.251,132.113,206.678,132.113z M206.678,256.335 c-22.102,0-40.018-17.916-40.018-40.004c0-8.419,2.707-16.129,7.169-22.547c-1.428-2.854-2.25-6.063-2.25-9.471 c0-11.724,9.503-21.228,21.227-21.228c9.12,0,16.873,5.762,19.877,13.835c19.231,2.907,34.012,19.355,34.012,39.41 C246.695,238.418,228.779,256.335,206.678,256.335z"/><path style="fill:#F7F1E6;" d="M227.924,80.744c-24.28,0-45.219,2.232-62.966,7.467C84.954,108.781,0,194.448,0,214.994 s108.52,127.424,195.239,127.424c24.28,0,45.22-2.232,62.966-7.484c80.004-20.57,164.958-101.506,164.958-126.783 S314.644,80.744,227.924,80.744z M206.678,300.768c-46.574,0-84.327-37.754-84.327-84.328c0-46.572,37.753-84.326,84.327-84.326 s84.327,37.754,84.327,84.326C291.004,263.014,253.251,300.768,206.678,300.768z"/><path style="fill:#2B3237;" d="M212.683,176.92c0.858,2.305,1.35,4.789,1.35,7.393c0,11.723-9.503,21.227-21.227,21.227 c-8.315,0-15.494-4.793-18.977-11.756c-4.463,6.418-7.169,14.128-7.169,22.547c0,22.088,17.916,40.004,40.018,40.004 s40.018-17.916,40.018-40.004C246.695,196.275,231.914,179.827,212.683,176.92z"/><path style="fill:#F7F1E6;" d="M192.806,205.539c11.724,0,21.227-9.504,21.227-21.227c0-2.604-0.492-5.088-1.35-7.393 c-3.005-8.073-10.758-13.835-19.877-13.835c-11.724,0-21.227,9.504-21.227,21.228c0,3.408,0.823,6.617,2.25,9.471 C177.311,200.746,184.49,205.539,192.806,205.539z"/></symbol><symbol id="view" viewBox="0 0 59.2 59.2"><title>view</title><path d="M51.062,21.561c-11.889-11.889-31.232-11.889-43.121,0L0,29.501l8.138,8.138c5.944,5.944,13.752,8.917,21.561,8.917 s15.616-2.972,21.561-8.917l7.941-7.941L51.062,21.561z M49.845,36.225c-11.109,11.108-29.184,11.108-40.293,0l-6.724-6.724 l6.527-6.527c11.109-11.108,29.184-11.108,40.293,0l6.724,6.724L49.845,36.225z"/><path d="M28.572,21.57c-3.86,0-7,3.14-7,7c0,0.552,0.448,1,1,1s1-0.448,1-1c0-2.757,2.243-5,5-5c0.552,0,1-0.448,1-1 S29.125,21.57,28.572,21.57z"/><path d="M29.572,16.57c-7.168,0-13,5.832-13,13s5.832,13,13,13s13-5.832,13-13S36.741,16.57,29.572,16.57z M29.572,40.57 c-6.065,0-11-4.935-11-11s4.935-11,11-11s11,4.935,11,11S35.638,40.57,29.572,40.57z"/></symbol><symbol id="like" viewBox="0 0 51.997 51.997"><title>like</title><path d="M51.911,16.242C51.152,7.888,45.239,1.827,37.839,1.827c-4.93,0-9.444,2.653-11.984,6.905 c-2.517-4.307-6.846-6.906-11.697-6.906c-7.399,0-13.313,6.061-14.071,14.415c-0.06,0.369-0.306,2.311,0.442,5.478 c1.078,4.568,3.568,8.723,7.199,12.013l18.115,16.439l18.426-16.438c3.631-3.291,6.121-7.445,7.199-12.014 C52.216,18.553,51.97,16.611,51.911,16.242z M49.521,21.261c-0.984,4.172-3.265,7.973-6.59,10.985L25.855,47.481L9.072,32.25 c-3.331-3.018-5.611-6.818-6.596-10.99c-0.708-2.997-0.417-4.69-0.416-4.701l0.015-0.101C2.725,9.139,7.806,3.826,14.158,3.826 c4.687,0,8.813,2.88,10.771,7.515l0.921,2.183l0.921-2.183c1.927-4.564,6.271-7.514,11.069-7.514 c6.351,0,11.433,5.313,12.096,12.727C49.938,16.57,50.229,18.264,49.521,21.261z"/><path d="M15.999,7.904c-5.514,0-10,4.486-10,10c0,0.553,0.447,1,1,1s1-0.447,1-1c0-4.411,3.589-8,8-8c0.553,0,1-0.447,1-1 S16.551,7.904,15.999,7.904z"/></symbol><symbol id="like-1" viewBox="0 0 50 50"><title>like-1</title><path style="fill:#C03A2B;" d="M24.85,10.126c2.018-4.783,6.628-8.125,11.99-8.125c7.223,0,12.425,6.179,13.079,13.543 c0,0,0.353,1.828-0.424,5.119c-1.058,4.482-3.545,8.464-6.898,11.503L24.85,48L7.402,32.165c-3.353-3.038-5.84-7.021-6.898-11.503 c-0.777-3.291-0.424-5.119-0.424-5.119C0.734,8.179,5.936,2,13.159,2C18.522,2,22.832,5.343,24.85,10.126z"/><path style="fill:#ED7161;" d="M6,18.078c-0.553,0-1-0.447-1-1c0-5.514,4.486-10,10-10c0.553,0,1,0.447,1,1s-0.447,1-1,1 c-4.411,0-8,3.589-8,8C7,17.631,6.553,18.078,6,18.078z"/></symbol></svg>